<svg id="Layer_1" enable-background="new 0 0 511.889 511.889" height="512" viewBox="0 0 511.889 511.889" width="512" xmlns="http://www.w3.org/2000/svg"><g><g><path d="m16.78 90.086-10.769 10.252c-3.838 3.654-6.011 8.722-6.011 14.021v376.565c0 11.538 9.358 20.891 20.902 20.891h361.622c11.544 0 20.902-9.353 20.902-20.891v-400.838l-201.713-55.165z" fill="#fff1f3"/><path d="m403.426 20.965c0-11.538-9.358-20.891-20.902-20.891h-263.444c-4.975 0-9.759 1.913-13.361 5.342l-88.939 84.67h386.646z" fill="#e7dfdd"/></g><g><g fill="#eceae7"><path d="m382.524.074h-180.811v511.741h180.811c11.544 0 20.902-9.353 20.902-20.891v-469.959c0-11.538-9.358-20.891-20.902-20.891z"/><path d="m96.86 106.061c7.992 0 14.47-6.475 14.47-14.463v-89.886c-2.053.897-3.96 2.132-5.612 3.704l-99.707 94.922c-1.735 1.652-3.109 3.603-4.117 5.723z"/></g></g><circle cx="391.864" cy="239.61" fill="#fff5f5" r="105.025"/><g><path d="m391.864 416.643c-8.284 0-15-6.716-15-15v-57.008c0-8.284 6.716-15 15-15s15 6.716 15 15v57.008c0 8.284-6.716 15-15 15z" fill="#ffe705"/></g><g><g><path d="m293.814 213.289h-132.27c-8.284 0-15-6.716-15-15s6.716-15 15-15h132.271c8.284 0 15 6.716 15 15s-6.717 15-15.001 15z" fill="#004960"/></g><g><circle cx="101.426" cy="198.289" fill="#ff1f3d" r="15"/></g></g><g><g><path d="m290.378 286.074h-128.834c-8.284 0-15-6.716-15-15s6.716-15 15-15h128.834c8.284 0 15 6.716 15 15s-6.716 15-15 15z" fill="#004960"/></g><g><circle cx="101.426" cy="271.074" fill="#ace233" r="15"/></g></g><g><g><path d="m249.173 358.858h-87.629c-8.284 0-15-6.716-15-15s6.716-15 15-15h87.629c8.284 0 15 6.716 15 15s-6.716 15-15 15z" fill="#004960"/></g><g><circle cx="101.426" cy="343.859" fill="#ace233" r="15"/></g></g><g><g><path d="m217.428 431.643h-55.884c-8.284 0-15-6.716-15-15s6.716-15 15-15h55.884c8.284 0 15 6.716 15 15s-6.716 15-15 15z" fill="#004960"/></g><g><circle cx="101.426" cy="416.643" fill="#ace233" r="15"/></g></g><path d="m403.001 16.763c-1.48-7.235-6.709-13.086-13.559-15.492-.401-.141-.806-.273-1.218-.39-1.052-.298-2.134-.521-3.247-.651-.806-.094-1.622-.156-2.454-.156h-180.81v90.058h201.713v-69.156c0-1.111-.112-2.194-.279-3.258-.05-.318-.082-.642-.146-.955z" fill="#dad0cb"/><g fill="#003140"><path d="m249.173 328.858h-47.46v30h47.46c8.284 0 15-6.716 15-15s-6.716-15-15-15z"/><path d="m217.428 401.643h-15.715v30h15.715c8.284 0 15-6.716 15-15s-6.716-15-15-15z"/><path d="m290.378 256.074h-88.665v30h88.665c8.284 0 15-6.716 15-15s-6.716-15-15-15z"/><path d="m293.814 183.289h-92.101v30h92.101c8.284 0 15-6.716 15-15s-6.716-15-15-15z"/></g><path d="m391.864 134.585v210.05c58.004 0 105.025-47.021 105.025-105.025s-47.022-105.025-105.025-105.025z" fill="#eceae7"/><path d="m406.864 401.643v-57.008c0-8.284-6.716-15-15-15v87.008c8.284 0 15-6.716 15-15z" fill="#ffcb00"/><path d="m391.864 359.635c-66.182 0-120.025-53.843-120.025-120.025s53.843-120.025 120.025-120.025 120.025 53.843 120.025 120.025-53.843 120.025-120.025 120.025zm0-210.05c-49.64 0-90.025 40.385-90.025 90.025s40.385 90.025 90.025 90.025 90.025-40.385 90.025-90.025-40.386-90.025-90.025-90.025z" fill="#45f6ff"/><path d="m481.889 239.61c0 49.64-40.385 90.025-90.025 90.025v30c66.182 0 120.025-53.843 120.025-120.025s-53.843-120.025-120.025-120.025v30c49.639 0 90.025 40.385 90.025 90.025z" fill="#5ecbf1"/><path d="m417.653 397.355h-51.579c-5.82 0-10.538 4.718-10.538 10.538v93.384c0 5.82 4.718 10.538 10.538 10.538h51.579c5.82 0 10.538-4.718 10.538-10.538v-93.384c0-5.82-4.718-10.538-10.538-10.538z" fill="#854737"/><path d="m417.653 397.355h-25.789v114.46h25.789c5.82 0 10.538-4.718 10.538-10.538v-93.384c0-5.82-4.718-10.538-10.538-10.538z" fill="#734536"/><g><path d="m383.821 274.09c-3.434 0-6.875-1.173-9.682-3.546l-22.88-19.347c-6.326-5.349-7.118-14.813-1.769-21.139 5.35-6.327 14.814-7.117 21.139-1.769l12.344 10.438 29.204-29.204c5.857-5.858 15.355-5.858 21.213 0 5.858 5.857 5.858 15.355 0 21.213l-38.959 38.96c-2.917 2.916-6.758 4.394-10.61 4.394z" fill="#00d16c"/></g><path d="m412.177 209.523-20.313 20.313v41.907c.91-.579 1.775-1.255 2.566-2.047l38.959-38.96c5.858-5.858 5.858-15.355 0-21.213-5.857-5.858-15.355-5.858-21.212 0z" fill="#00ae5b"/></g></svg>