<svg id="Capa_1" enable-background="new 0 0 512 512" height="512" viewBox="0 0 512 512" width="512" xmlns="http://www.w3.org/2000/svg"><g><path d="m477.867 162.133v316.901c0 18.206-14.759 32.966-32.966 32.966h-377.802c-18.206 0-32.966-14.759-32.966-32.966v-316.901l221.867-72.533z" fill="#f3f5f9"/><path d="m454.172 154.387v324.647c0 18.206-14.759 32.966-32.966 32.966h23.694c18.206 0 32.966-14.759 32.966-32.966v-316.901z" fill="#cfd7e6"/><g><path d="m443.733 281.6c0 9.426-7.641 17.068-17.067 17.068h-68.264c-9.426 0-17.068-7.641-17.068-17.068v-68.266c0-9.426 7.641-17.068 17.068-17.068h68.264c9.426 0 17.067 7.641 17.067 17.068z" fill="#f25a3c"/><path d="m426.665 196.267h-23.694c9.426 0 17.068 7.641 17.068 17.068v68.265c0 9.426-7.641 17.068-17.068 17.068h23.694c9.426 0 17.068-7.641 17.068-17.068v-68.266c0-9.426-7.642-17.067-17.068-17.067z" fill="#e63a3a"/></g><g><path d="m307.2 281.6c0 9.426-7.641 17.068-17.067 17.068h-68.264c-9.426 0-17.068-7.641-17.068-17.068v-68.266c0-9.426 7.641-17.068 17.068-17.068h68.264c9.426 0 17.067 7.641 17.067 17.068z" fill="#8db5ff"/><path d="m290.132 196.267h-23.694c9.426 0 17.068 7.641 17.068 17.068v68.265c0 9.426-7.641 17.068-17.068 17.068h23.694c9.426 0 17.068-7.641 17.068-17.068v-68.266c0-9.426-7.642-17.067-17.068-17.067z" fill="#7784ff"/></g><g><path d="m170.667 281.6c0 9.426-7.641 17.068-17.068 17.068h-68.264c-9.426 0-17.068-7.641-17.068-17.068v-68.266c0-9.426 7.642-17.068 17.068-17.068h68.264c9.426 0 17.068 7.641 17.068 17.068z" fill="#8db5ff"/><path d="m153.599 196.267h-23.694c9.426 0 17.068 7.641 17.068 17.068v68.265c0 9.426-7.641 17.068-17.068 17.068h23.694c9.426 0 17.068-7.641 17.068-17.068v-68.266c0-9.426-7.641-17.067-17.068-17.067z" fill="#7784ff"/></g><g><path d="m443.733 418.135c0 9.426-7.641 17.068-17.067 17.068h-68.264c-9.426 0-17.068-7.641-17.068-17.068v-68.266c0-9.426 7.641-17.068 17.068-17.068h68.264c9.426 0 17.067 7.641 17.067 17.068z" fill="#68d9c0"/><path d="m426.665 332.801h-23.694c9.426 0 17.068 7.642 17.068 17.068v68.266c0 9.426-7.641 17.068-17.068 17.068h23.694c9.426 0 17.068-7.641 17.068-17.068v-68.266c0-9.426-7.642-17.068-17.068-17.068z" fill="#4fc6b9"/></g><g><path d="m307.2 418.135c0 9.426-7.641 17.068-17.067 17.068h-68.264c-9.426 0-17.068-7.641-17.068-17.068v-68.266c0-9.426 7.641-17.068 17.068-17.068h68.264c9.426 0 17.067 7.641 17.067 17.068z" fill="#8db5ff"/><path d="m290.132 332.801h-23.694c9.426 0 17.068 7.642 17.068 17.068v68.266c0 9.426-7.641 17.068-17.068 17.068h23.694c9.426 0 17.068-7.641 17.068-17.068v-68.266c0-9.426-7.642-17.068-17.068-17.068z" fill="#7784ff"/></g><g><path d="m170.667 418.135c0 9.426-7.641 17.068-17.068 17.068h-68.264c-9.426 0-17.068-7.641-17.068-17.068v-68.266c0-9.426 7.642-17.068 17.068-17.068h68.264c9.426 0 17.068 7.641 17.068 17.068z" fill="#8db5ff"/><path d="m153.599 332.801h-23.694c9.426 0 17.068 7.642 17.068 17.068v68.266c0 9.426-7.641 17.068-17.068 17.068h23.694c9.426 0 17.068-7.641 17.068-17.068v-68.266c0-9.426-7.641-17.068-17.068-17.068z" fill="#7784ff"/></g><g><path d="m68.267 485.592c-4.268 0-7.726-3.459-7.726-7.726v-8.533c0-4.268 3.459-7.726 7.726-7.726s7.726 3.459 7.726 7.726v8.533c0 4.268-3.459 7.726-7.726 7.726z" fill="#b4c2db"/></g><g><path d="m102.399 485.592c-4.268 0-7.726-3.459-7.726-7.726v-8.533c0-4.268 3.459-7.726 7.726-7.726s7.726 3.459 7.726 7.726v8.533c.001 4.268-3.458 7.726-7.726 7.726z" fill="#b4c2db"/></g><g><path d="m136.531 485.592c-4.268 0-7.726-3.459-7.726-7.726v-8.533c0-4.268 3.459-7.726 7.726-7.726 4.268 0 7.726 3.459 7.726 7.726v8.533c.001 4.268-3.458 7.726-7.726 7.726z" fill="#b4c2db"/></g><g><g fill="#f3f5f9"><path d="m136.535 239.742h-9.341v-9.34c0-4.268-3.459-7.726-7.726-7.726-4.268 0-7.726 3.459-7.726 7.726v9.34h-9.34c-4.268 0-7.726 3.459-7.726 7.726 0 4.268 3.459 7.726 7.726 7.726h9.34v9.34c0 4.267 3.459 7.726 7.726 7.726 4.268 0 7.726-3.459 7.726-7.726v-9.34h9.341c4.268 0 7.726-3.459 7.726-7.726.001-4.267-3.458-7.726-7.726-7.726z"/><path d="m137 366.47c-3.018-3.016-7.91-3.016-10.928 0l-6.604 6.604-6.604-6.604c-3.018-3.016-7.91-3.016-10.928 0-3.017 3.018-3.017 7.909 0 10.928l6.604 6.604-6.604 6.604c-3.017 3.018-3.017 7.909 0 10.928 1.509 1.508 3.487 2.263 5.464 2.263s3.955-.755 5.464-2.263l6.604-6.604 6.604 6.604c1.509 1.508 3.487 2.263 5.464 2.263s3.955-.755 5.464-2.263c3.017-3.018 3.017-7.91 0-10.928l-6.604-6.604 6.604-6.604c3.017-3.019 3.017-7.91 0-10.928z"/><path d="m238.933 255.194h34.134c4.268 0 7.726-3.459 7.726-7.726 0-4.268-3.459-7.726-7.726-7.726h-34.134c-4.268 0-7.726 3.459-7.726 7.726-.001 4.268 3.458 7.726 7.726 7.726z"/><path d="m375.467 378.928h34.133c4.268 0 7.726-3.459 7.726-7.726 0-4.268-3.459-7.726-7.726-7.726h-34.133c-4.268 0-7.726 3.459-7.726 7.726-.001 4.267 3.458 7.726 7.726 7.726z"/><path d="m409.6 389.074h-34.133c-4.268 0-7.726 3.459-7.726 7.726 0 4.268 3.459 7.726 7.726 7.726h34.133c4.268 0 7.726-3.459 7.726-7.726s-3.459-7.726-7.726-7.726z"/><path d="m267.603 361.471-34.134 34.133c-3.017 3.018-3.017 7.909 0 10.927 1.509 1.508 3.486 2.263 5.464 2.263 1.977 0 3.955-.754 5.464-2.263l34.134-34.133c3.017-3.018 3.017-7.91 0-10.928-3.018-3.015-7.909-3.015-10.928.001z"/><path d="m395.69 272.26c5.561 0 10.577-1.848 14.51-5.349.769-.685 1.496-1.435 2.163-2.23 2.742-3.27 2.314-8.143-.956-10.885s-8.143-2.313-10.885.956c-.189.226-.394.438-.602.624-1.083.964-2.468 1.432-4.23 1.432-5.15 0-9.34-4.19-9.34-9.34 0-5.151 4.19-9.341 9.34-9.341 1.872 0 3.676.55 5.216 1.592 3.539 2.387 8.339 1.459 10.728-2.077 2.388-3.536 1.459-8.339-2.076-10.728-4.106-2.773-8.902-4.239-13.868-4.239-13.671 0-24.793 11.123-24.793 24.794s11.122 24.791 24.793 24.791z"/></g></g><path d="m444.901 0h-377.802c-18.206 0-32.966 14.759-32.966 32.966v129.167h443.733v-129.167c.001-18.207-14.759-32.966-32.965-32.966z" fill="#595353"/><path d="m444.901 0h-23.694c18.207 0 32.966 14.759 32.966 32.966v129.167h23.694v-129.167c0-18.207-14.76-32.966-32.966-32.966z" fill="#403939"/><path d="m435.733 128h-359.466c-4.418 0-8-3.582-8-8v-60.8c0-4.418 3.582-8 8-8h359.467c4.418 0 8 3.582 8 8v60.8c-.001 4.418-3.582 8-8.001 8z" fill="#68d9c0"/><path d="m435.492 51.2h-23.694c4.552 0 8.241 3.69 8.241 8.241v60.317c0 4.551-3.69 8.241-8.241 8.241h23.694c4.551 0 8.241-3.69 8.241-8.241v-60.317c0-4.551-3.69-8.241-8.241-8.241z" fill="#4fc6b9"/></g></svg>