<svg id="Layer_1" enable-background="new 0 0 512 512" height="512" viewBox="0 0 512 512" width="512" xmlns="http://www.w3.org/2000/svg"><path d="m256 0c-86.687 0-156.96 70.273-156.96 156.96 0 53.819 27.093 97.524 68.378 125.48 3.507 2.374 5.569 6.368 5.569 10.603v32.134l166.027.009v-32.143c0-4.235 2.062-8.228 5.569-10.603 41.285-27.956 68.378-71.661 68.378-125.48-.001-86.687-70.274-156.96-156.961-156.96z" fill="#ffe705"/><path d="m256 0v325.181l83.014.004v-32.143c0-4.235 2.062-8.228 5.569-10.603 41.285-27.956 68.378-71.661 68.378-125.48-.001-86.686-70.274-156.959-156.961-156.959z" fill="#ffcb00"/><g><path d="m225.899 336.892c-7.885-.87-13.696-7.83-13.696-15.763v-83.76l-32.477-32.478c-5.609-5.609-6.422-14.64-1.462-20.831 5.864-7.32 16.585-7.757 23.029-1.312l37.292 37.292c2.898 2.898 4.526 6.829 4.526 10.927v90.567c0 9.115-7.89 16.387-17.212 15.358z" fill="#ffcb00"/></g><g><path d="m282.478 336.892c-7.885-.87-13.696-7.83-13.696-15.763v-90.161c0-4.139 1.66-8.105 4.609-11.01l37.858-37.292c6.491-6.396 17.207-5.879 23.017 1.483 4.915 6.228 4.035 15.254-1.617 20.821l-32.959 32.467v84.098c0 9.114-7.89 16.386-17.212 15.357z" fill="#ff9d21"/></g><path d="m331.175 385.515h-150.35c-17.667 0-31.989-14.322-31.989-31.989 0-17.667 14.322-31.989 31.989-31.989h150.35c17.667 0 31.989 14.322 31.989 31.989.001 17.667-14.322 31.989-31.989 31.989z" fill="#eceae7"/><path d="m331.175 449.494h-150.35c-17.667 0-31.989-14.322-31.989-31.989 0-17.667 14.322-31.989 31.989-31.989h150.35c17.667 0 31.989 14.322 31.989 31.989.001 17.667-14.322 31.989-31.989 31.989z" fill="#fff5f5"/><path d="m197.169 449.438v3.73c0 32.492 26.339 58.832 58.831 58.832 32.492 0 58.831-26.34 58.831-58.831v-3.73h-117.662z" fill="#e7dfdd"/><g><g><path d="m455.995 110.587c-5.666 0-11.088-3.226-13.624-8.706-3.479-7.519-.203-16.434 7.316-19.912l28.366-13.122c7.518-3.48 16.434-.202 19.911 7.316 3.479 7.519.203 16.434-7.316 19.912l-28.366 13.122c-2.038.943-4.18 1.39-6.287 1.39z" fill="#ff1f3d"/></g><g><path d="m497 173.982h-31.308c-8.284 0-15-6.716-15-15s6.716-15 15-15h31.308c8.284 0 15 6.716 15 15s-6.716 15-15 15z" fill="#ff1f3d"/></g><g><path d="m483.897 250.506c-2.108 0-4.249-.446-6.288-1.39l-28.365-13.122c-7.519-3.478-10.794-12.393-7.316-19.912s12.392-10.795 19.912-7.316l28.365 13.122c7.519 3.478 10.794 12.393 7.316 19.912-2.536 5.48-7.959 8.706-13.624 8.706z" fill="#ff1f3d"/></g></g><g><g><path d="m27.659 250.506c-5.666 0-11.088-3.225-13.624-8.706-3.479-7.519-.203-16.434 7.316-19.912l28.366-13.122c7.519-3.478 16.434-.203 19.912 7.316 3.479 7.519.203 16.434-7.316 19.912l-28.366 13.122c-2.038.943-4.18 1.39-6.288 1.39z" fill="#ff6b6b"/></g><g><path d="m46.308 173.982h-31.308c-8.284 0-15-6.716-15-15s6.716-15 15-15h31.308c8.284 0 15 6.716 15 15s-6.716 15-15 15z" fill="#ff6b6b"/></g><g><path d="m56.449 110.587c-2.108 0-4.249-.446-6.288-1.39l-28.366-13.122c-7.519-3.478-10.794-12.393-7.316-19.912 3.478-7.518 12.393-10.795 19.912-7.316l28.366 13.122c7.519 3.478 10.794 12.393 7.316 19.912-2.535 5.48-7.958 8.706-13.624 8.706z" fill="#ff6b6b"/></g></g><path d="m331.175 385.515h-75.175v63.979h75.175c17.667 0 31.989-14.322 31.989-31.989.001-17.668-14.322-31.99-31.989-31.99z" fill="#eceae7"/><path d="m256 512c32.492 0 58.831-26.34 58.831-58.831v-3.73h-58.831z" fill="#dad0cb"/><path d="m331.175 321.536h-75.175v63.979h75.175c17.667 0 31.989-14.322 31.989-31.989.001-17.668-14.322-31.99-31.989-31.99z" fill="#e7dfdd"/></svg>